<?xml version="1.0" standalone="no"?>
<!DOCTYPE svg PUBLIC "-//W3C//DTD SVG 20010904//EN"
 "http://www.w3.org/TR/2001/REC-SVG-20010904/DTD/svg10.dtd">
<svg version="1.0" xmlns="http://www.w3.org/2000/svg"
 width="992.000000pt" height="992.000000pt" viewBox="0 0 992.000000 992.000000"
 preserveAspectRatio="xMidYMid meet">
<metadata>
Created by potrace 1.14, written by Peter Selinger 2001-2017
</metadata>
<g transform="translate(0.000000,992.000000) scale(0.100000,-0.100000)"
fill="#000000" stroke="none">
<path d="M8641 8522 c-49 -53 -313 -330 -439 -461 -60 -62 -93 -106 -116 -156
-36 -76 -123 -254 -279 -575 -55 -113 -108 -224 -118 -247 -10 -24 -22 -43
-26 -44 -4 -1 -64 -2 -132 -3 l-124 -1 -59 -85 c-32 -47 -65 -93 -73 -103 -8
-9 -15 -20 -15 -23 0 -16 -63 -93 -96 -117 -95 -69 -143 -103 -161 -115 -10
-7 -76 -54 -148 -105 l-129 -92 -1 -126 0 -126 -58 -71 -57 -71 -101 103 -100
104 -62 -14 c-34 -8 -90 -22 -125 -30 -35 -9 -68 -17 -75 -18 -16 -4 -91 -20
-97 -21 -44 -11 -68 -18 -81 -21 -12 -3 -15 -21 -15 -95 1 -81 -1 -92 -20
-106 -12 -9 -24 -15 -28 -15 -3 1 -21 -7 -40 -18 l-34 -19 36 77 c20 42 42 86
49 97 11 18 5 31 -63 120 -41 55 -80 107 -87 115 -7 8 -28 36 -46 62 -35 49
-48 54 -176 73 -22 3 -49 7 -60 9 -38 6 -110 18 -137 22 -16 2 -43 7 -60 10
-103 18 -134 22 -139 16 -4 -4 -27 -67 -53 -141 l-46 -134 -101 -96 c-56 -53
-126 -118 -155 -146 -91 -87 -106 -98 -173 -117 -36 -10 -88 -25 -116 -33 -27
-8 -63 -17 -80 -21 -34 -8 -47 -20 -89 -81 -37 -55 -55 -70 -65 -55 -3 6 -66
72 -139 146 -72 75 -132 140 -132 145 0 5 8 12 18 16 9 3 17 5 17 4 0 -1 23
11 50 27 39 22 160 85 172 89 1 0 -3 21 -8 45 -6 25 -12 52 -14 60 -27 120
-45 184 -53 192 -8 8 -214 14 -247 8 -6 -1 -14 -2 -20 0 -5 1 -44 1 -85 0 -54
-1 -83 -7 -105 -20 -16 -10 -54 -31 -82 -46 -29 -16 -53 -32 -53 -36 0 -4 -4
-8 -10 -8 -16 0 -230 -131 -230 -141 0 -5 -4 -9 -9 -9 -5 0 -30 -19 -54 -42
-24 -24 -79 -74 -121 -112 l-76 -70 0 -256 0 -257 70 2 c66 1 93 -11 50 -22
-11 -3 -20 -9 -20 -13 0 -13 -33 -17 -60 -7 -14 5 -32 10 -40 11 -18 3 -53 12
-140 37 -36 10 -76 20 -90 23 -14 2 -32 7 -40 10 -8 3 -34 10 -58 16 -23 6
-42 16 -41 23 2 7 -3 39 -11 72 -7 33 -14 67 -15 75 -2 8 -10 49 -19 90 -10
41 -19 89 -22 105 -3 17 -9 44 -14 60 -5 17 -12 46 -15 65 -3 19 -8 44 -10 55
-2 11 -8 40 -14 65 -7 25 -13 56 -16 70 -2 14 -9 48 -15 75 -18 80 -20 89 -25
115 -3 14 -9 45 -15 70 -6 25 -14 65 -19 90 -19 92 -22 105 -32 114 -6 6 -9 6
-9 -2 0 -7 -3 -11 -7 -10 -8 3 -65 -17 -94 -32 -8 -4 -47 -20 -85 -35 -38 -14
-80 -32 -94 -40 -14 -7 -27 -14 -30 -14 -43 -7 -70 -32 -115 -102 -27 -44 -57
-88 -65 -98 -8 -11 -107 -159 -220 -329 -193 -292 -222 -329 -268 -338 -8 -1
-22 -10 -31 -18 -10 -9 -22 -16 -27 -16 -6 0 -38 -15 -73 -34 -52 -27 -69 -32
-93 -26 -15 5 -32 9 -36 9 -4 0 -29 3 -55 6 -42 6 -50 4 -68 -16 -28 -33 -185
-203 -236 -257 -24 -25 -43 -46 -43 -48 0 -1 -21 -25 -48 -52 -98 -103 -112
-121 -103 -126 5 -3 11 -16 14 -28 2 -13 18 -60 35 -105 l30 -82 -71 -103
c-38 -57 -84 -123 -101 -148 -16 -25 -35 -48 -40 -52 -16 -11 -9 -156 10 -219
2 -10 7 -32 9 -50 4 -37 24 -158 31 -199 3 -14 7 -34 9 -45 2 -11 9 -54 15
-95 13 -83 18 -112 25 -153 23 -126 27 -155 30 -177 2 -14 6 -45 10 -70 l6
-45 -283 -139 c-156 -76 -284 -139 -286 -141 -1 -1 7 -29 20 -61 12 -33 23
-61 23 -64 1 -3 5 -14 10 -25 4 -11 23 -58 41 -105 18 -47 51 -133 73 -191 23
-58 41 -108 41 -112 0 -4 8 -26 19 -50 10 -23 33 -80 51 -127 17 -47 36 -93
42 -104 5 -10 11 -26 13 -35 3 -14 37 -107 65 -176 27 -68 109 -284 114 -301
4 -12 33 -46 64 -75 224 -208 271 -251 278 -252 7 -2 16 24 29 78 2 11 11 47
20 80 8 33 18 71 20 85 3 14 8 32 11 40 3 8 8 26 11 40 2 14 22 96 44 182 22
86 42 166 44 178 10 54 14 56 138 94 171 52 180 57 183 92 2 40 13 169 19 224
5 54 13 139 21 235 7 86 7 89 16 95 3 3 61 5 128 5 l122 -1 23 -39 c49 -87
170 -292 182 -311 5 -6 33 -23 63 -37 128 -58 199 -91 260 -120 36 -18 67 -32
70 -32 6 -1 88 -39 163 -76 31 -15 60 -28 62 -28 3 -1 18 -7 34 -16 33 -17 31
-20 62 95 16 56 13 47 28 100 7 25 16 50 19 55 4 6 7 15 7 20 0 6 11 47 24 93
24 79 26 82 50 78 15 -3 55 -8 91 -11 36 -4 76 -8 90 -10 14 -3 54 -7 90 -10
36 -3 85 -8 110 -12 25 -3 51 -6 58 -6 8 0 12 -16 12 -44 0 -23 3 -43 8 -43 4
0 23 -15 43 -33 43 -38 57 -50 169 -142 47 -38 91 -76 99 -84 11 -10 33 -12
91 -7 l77 7 31 -71 c18 -38 32 -72 32 -75 0 -2 13 -34 30 -70 16 -36 30 -67
30 -69 0 -2 10 -25 22 -52 12 -27 23 -51 23 -54 0 -3 10 -25 21 -50 18 -39 30
-50 80 -74 32 -15 196 -96 363 -181 221 -111 309 -151 320 -144 15 8 142 65
159 71 4 1 36 16 72 33 36 18 86 40 111 49 46 17 47 17 90 -5 24 -13 47 -22
52 -21 4 1 7 -3 7 -10 0 -6 3 -8 6 -5 4 4 19 -2 33 -12 56 -39 69 -36 216 55
22 13 58 34 80 45 22 12 42 25 45 30 3 4 17 13 30 19 14 6 34 16 45 23 115 69
145 91 145 103 0 8 -4 13 -8 10 -4 -2 -13 4 -20 15 -15 24 -11 24 31 0 19 -11
45 -25 58 -33 13 -7 26 -15 29 -18 26 -26 80 -38 245 -54 22 -2 54 -7 70 -10
28 -5 59 -9 170 -22 22 -2 54 -7 70 -9 17 -3 52 -7 80 -8 49 -3 50 -3 205 117
279 215 308 237 326 240 11 2 39 10 64 17 25 7 50 13 55 15 39 8 214 57 231
63 18 8 20 16 18 62 -1 30 -6 140 -9 244 -4 105 -8 219 -9 253 -2 51 0 65 13
69 17 5 30 10 107 40 l52 20 28 -24 c16 -13 49 -41 73 -61 57 -48 125 -106
131 -112 30 -30 60 -51 76 -54 10 -2 51 -12 89 -21 67 -16 88 -20 138 -29 12
-2 40 -9 62 -14 22 -6 51 -13 65 -16 42 -8 185 -39 188 -41 1 -1 5 -31 8 -66
3 -35 7 -75 11 -89 3 -14 7 -43 9 -65 6 -75 14 -150 18 -175 7 -38 19 -143 18
-162 0 -10 5 -18 11 -18 60 -2 551 1 553 2 2 3 9 204 20 543 3 88 6 176 8 195
1 19 -3 60 -10 91 -7 31 -15 67 -18 80 -2 13 -10 47 -16 74 -6 28 -14 61 -16
75 -3 14 -7 33 -10 42 -3 10 -7 30 -10 45 -3 16 -9 44 -13 63 -24 97 -24 97
23 28 26 -37 46 -71 46 -75 0 -5 8 -13 19 -20 14 -9 23 -9 37 1 11 7 37 19 59
26 22 7 49 18 60 24 11 7 40 20 65 29 46 16 243 97 248 101 1 2 -41 67 -93
145 -52 78 -95 145 -95 150 0 5 -3 11 -8 13 -4 2 -38 48 -75 103 -37 55 -102
137 -144 181 -68 71 -230 244 -317 338 -15 17 -74 80 -129 139 -56 59 -125
134 -154 165 l-53 57 -1 -100 c0 -55 -1 -139 0 -187 0 -49 -3 -88 -6 -88 -3 0
-12 8 -19 18 -13 16 -17 14 -51 -24 -21 -22 -48 -55 -61 -71 -60 -79 -87 -103
-109 -97 -21 6 -23 10 -17 63 3 31 7 79 9 106 2 28 5 50 5 50 1 0 3 16 5 35 2
19 7 58 10 85 4 28 9 68 11 90 4 51 13 123 19 155 2 14 7 55 10 92 3 37 8 77
10 90 2 13 6 46 10 73 3 28 14 61 23 75 23 34 40 62 48 80 4 8 22 38 40 65 17
28 78 127 135 220 57 94 108 173 114 177 5 4 7 8 2 8 -4 0 9 24 28 53 30 45
35 62 36 115 1 52 4 60 16 51 7 -7 12 -17 10 -23 -2 -6 0 -24 5 -41 5 -16 11
-41 14 -55 4 -20 41 -174 70 -295 3 -11 7 -27 9 -35 2 -8 4 -18 4 -21 1 -3 31
-26 69 -50 150 -97 420 -272 460 -300 23 -16 47 -29 52 -29 6 0 10 -4 10 -10
0 -5 4 -10 9 -10 7 0 215 -133 328 -210 l41 -28 -4 26 c-3 15 -7 34 -10 42 -3
8 -8 26 -10 39 -3 14 -14 57 -25 97 -11 40 -22 82 -24 94 -10 43 -14 58 -40
155 -14 55 -28 108 -31 118 -2 9 -6 25 -9 35 -18 69 -26 100 -30 117 -4 22 -5
26 -35 135 -11 41 -23 86 -26 100 -3 14 -8 34 -11 45 -4 11 -7 27 -8 35 -1 17
-19 53 -40 78 -42 52 -85 113 -85 122 0 6 -4 10 -8 10 -4 0 -16 15 -27 33 -10
17 -21 34 -25 37 -6 5 -118 162 -134 188 -4 7 -8 162 -7 345 0 183 -4 348 -9
367 -5 19 -11 46 -14 60 -2 14 -10 48 -16 75 -7 28 -14 59 -16 70 -2 11 -10
49 -19 85 -22 94 -23 99 -39 170 -8 36 -23 106 -34 155 -12 50 -23 101 -26
115 -2 14 -10 48 -16 75 -7 28 -13 57 -15 65 -2 8 -4 16 -5 18 -2 1 -3 8 -4
15 -1 11 -60 26 -208 53 -71 12 -72 39 -4 124 19 25 72 92 116 149 l80 104
-20 31 c-11 17 -82 131 -158 253 -75 123 -141 223 -147 223 -5 0 -30 -21 -54
-48z m-4745 -2689 c-4 -16 -9 -39 -12 -53 -3 -14 -7 -34 -9 -45 -3 -11 -9 -38
-14 -60 -5 -22 -12 -51 -15 -65 -2 -14 -23 -107 -45 -207 -23 -101 -41 -185
-41 -188 0 -3 -7 -5 -15 -5 -8 0 -15 3 -15 8 0 4 -25 32 -55 62 -63 62 -85 93
-60 84 13 -5 15 14 15 149 l0 155 81 59 c45 32 102 75 128 95 55 45 64 46 57
11z"/>
</g>
</svg>
